Coordinates
version=1
nRows=26
nColumns=24
inDegrees=yes

Units are S.I. units (second, meters, Newtons, ...)
Angles are in degrees.

endheader
time	pelvis_tilt	pelvis_list	pelvis_rotation	pelvis_tx	pelvis_ty	pelvis_tz	hip_flexion_r	hip_adduction_r	hip_rotation_r	knee_angle_r	ankle_angle_r	subtalar_angle_r	mtp_angle_r	hip_flexion_l	hip_adduction_l	hip_rotation_l	knee_angle_l	ankle_angle_l	subtalar_angle_l	mtp_angle_l	lumbar_extension	lumbar_bending	lumbar_rotation
      0.57900000	      1.11148996	      2.01131014	     -3.36789108	     -0.77953237	      0.98548286	      0.31150207	     19.51889984	     -0.75750588	     -0.99279283	      5.56019472	     -4.52459081	     -6.47520831	      9.11593554	    -21.30807052	      7.00682715	      6.26279897	     -0.09210704	     11.39077529	    -11.74386586	      0.55805148	    -12.20428511	      6.30678173	     -9.71779908
      0.58316667	      1.08328117	      1.83747598	     -3.36948740	     -0.77383002	      0.98480365	      0.31193384	     19.50812661	     -0.52250257	     -0.67054605	      5.38464305	     -4.77845121	     -6.74642091	      9.11640602	    -21.39015555	      6.82757997	      6.08352854	     -0.61807806	     11.63282689	    -11.45144493	      0.58178431	    -12.17008246	      6.53908980	     -9.69809081
      0.58733333	      1.04197491	      1.65164628	     -3.37385626	     -0.76810207	      0.98416340	      0.31237922	     19.52652858	     -0.27468250	     -0.33528167	      5.10904360	     -5.05970055	     -7.05401630	      9.11992424	    -21.43380661	      6.63716849	      5.87212429	     -1.19288484	     11.88395199	    -11.12042792	      0.63243398	    -12.12181931	      6.78421321	     -9.65495462
      0.59150000	      1.00539429	      1.44461165	     -3.38043597	     -0.76234088	      0.98357420	      0.31284038	     19.54653805	     -0.00449455	      0.00946457	      4.75694110	     -5.39737099	     -7.42674987	      9.12575519	    -21.47110340	      6.42609353	      5.64943979	     -1.79760662	     12.12390205	    -10.77974784	      0.70457096	    -12.07312420	      7.05941648	     -9.60763509
      0.59566667	      0.96736686	      1.21984997	     -3.38628384	     -0.75655416	      0.98302705	      0.31332679	     19.57571458	      0.28533027	      0.36073289	      4.33336009	     -5.77185986	     -7.84548573	      9.13371756	    -21.48342156	      6.19626630	      5.40166997	     -2.45354348	     12.35336062	    -10.44559759	      0.80035259	    -12.03321761	      7.34663340	     -9.55598909
      0.59983333	      0.91676173	      0.98172382	     -3.39343450	     -0.75072021	      0.98251449	      0.31382754	     19.62292929	      0.59079670	      0.71765476	      3.85085041	     -6.19499921	     -8.31841032	      9.14260555	    -21.46861579	      5.95215466	      5.14978958	     -3.14049701	     12.55676625	    -10.11021971	      0.92257578	    -11.97245636	      7.65239233	     -9.49791828
      0.60400000	      0.88907146	      0.72921756	     -3.40555461	     -0.74486396	      0.98206621	      0.31434924	     19.65650946	      0.91349980	      1.06810852	      3.30586300	     -6.65972183	     -8.83851036	      9.15119113	    -21.46117712	      5.69633144	      4.87158172	     -3.86736125	     12.73932753	     -9.76815788	      1.07213060	    -11.93160071	      7.97921605	     -9.42874450
      0.60816667	      0.85151701	      0.46729154	     -3.40762723	     -0.73898106	      0.98165843	      0.31489509	     19.69970108	      1.24589673	      1.41423027	      2.72538001	     -7.12181836	     -9.38707881	      9.16459952	    -21.41091275	      5.42365099	      4.56686044	     -4.65902676	     12.91683256	     -9.40984678	      1.30254764	    -11.89579579	      8.30796541	     -9.36195081
      0.61233333	      0.81940943	      0.19406918	     -3.41664235	     -0.73305519	      0.98129782	      0.31545222	     19.75265754	      1.59416586	      1.73331654	      2.08373739	     -7.62262166	     -9.95989577	      9.17749351	    -21.35907029	      5.14206254	      4.26662506	     -5.46377428	     13.04212421	     -9.07485160	      1.59113945	    -11.85558531	      8.65494426	     -9.29001033
      0.61650000	      0.74349522	     -0.07979653	     -3.43781722	     -0.72708950	      0.98091588	      0.31603023	     19.87440860	      1.95159549	      2.02766507	      1.37492509	     -8.15602734	    -10.53232418	      9.18057562	    -21.26150472	      4.86450018	      4.02307164	     -6.27204470	     13.08200984	     -8.83795307	      1.82465103	    -11.75472301	      9.00269434	     -9.21138257
      0.62066667	      0.75287339	     -0.38839145	     -3.43886558	     -0.72109830	      0.98069076	      0.31662017	     19.88925683	      2.33635695	      2.29562015	      0.66522949	     -8.62597665	    -11.14153703	      9.19144519	    -21.20712849	      4.53919677	      3.64432520	     -7.18029530	     13.20157784	     -8.41189608	      2.37063720	    -11.76883065	      9.38999645	     -9.13940608
      0.62483333	      0.64723193	     -0.65368731	     -3.45455285	     -0.71508974	      0.98034917	      0.31722056	     20.06283779	      2.68910566	      2.54985443	     -0.11845933	     -9.13966387	    -11.71495113	      9.18638955	    -21.03340037	      4.26692538	      3.42917797	     -8.07443029	     13.10530016	     -8.29997412	      2.65293292	    -11.62728162	      9.71966619	     -9.04911788
      0.62900000	      0.61098765	     -0.95044113	     -3.46561497	     -0.70903876	      0.98014589	      0.31784138	     20.14640078	      3.07099416	      2.79072391	     -0.89470054	     -9.62345388	    -12.34355348	      9.17648778	    -20.90436393	      3.95535035	      3.10278870	     -9.02325208	     13.05516984	     -8.02922232	      3.02399091	    -11.56576509	     10.09707863	     -8.97160392
      0.63316667	      0.60335780	     -1.26064260	     -3.46104256	     -0.70298258	      0.98001185	      0.31844631	     20.21748994	      3.46211824	      2.96074911	     -1.72684376	    -10.03439899	    -12.94539761	      9.15698635	    -20.78563724	      3.62370167	      2.79423371	    -10.01854236	     13.01587215	     -7.67568058	      3.74142378	    -11.56074065	     10.49407769	     -8.89707879
      0.63733333	      0.56468626	     -1.56253008	     -3.47899620	     -0.69689360	      0.97987157	      0.31907604	     20.33496105	      3.85103476	      3.10534406	     -2.59835210	    -10.30834191	    -13.36005000	      9.00823655	    -20.61275377	      3.30695458	      2.47001236	    -11.03744300	     12.70817324	     -7.60724121	      8.44213553	    -11.50324720	     10.86324384	     -8.76779024
      0.64150000	      0.50910715	     -1.84885935	     -3.46994994	     -0.69079121	      0.97977403	      0.31967843	     20.45701025	      4.21821242	      3.24536831	     -3.44753762	    -10.62506419	    -13.89608160	      8.99290123	    -20.40095143	      3.00110698	      2.25645560	    -12.09318327	     12.41930222	     -7.57412121	      8.51079600	    -11.40864589	     11.23134807	     -8.73464750
      0.64566667	      0.47387378	     -2.14259210	     -3.46282721	     -0.68469095	      0.97973176	      0.32030418	     20.56898841	      4.59484504	      3.35403494	     -4.33419417	    -10.84317322	    -14.39345837	      8.97148729	    -20.17458627	      2.67941564	      1.98025712	    -13.21681651	     12.14248223	     -7.41699491	      8.66678530	    -11.35380289	     11.59452336	     -8.66252466
      0.64983333	      0.45355261	     -2.43868404	     -3.45005471	     -0.67858125	      0.97975029	      0.32091293	     20.66231980	      4.97053932	      3.44005594	     -5.22773949	    -10.96566475	    -14.84291468	      8.94331717	    -19.93415108	      2.35113840	      1.69270517	    -14.38921057	     11.80283211	     -7.27237304	      8.89725720	    -11.30495759	     11.97278863	     -8.58801343
      0.65400000	      0.43598353	     -2.72440043	     -3.42293073	     -0.67249042	      0.97980818	      0.32151005	     20.76939984	      5.33146978	      3.46365722	     -6.16037745	    -11.05038433	    -15.27618037	      8.89077824	    -19.66488648	      2.02166192	      1.41610819	    -15.60943246	     11.44057971	     -7.05378127	      9.34946589	    -11.26528903	     12.34482375	     -8.52332713
      0.65816667	      0.47185094	     -3.03491255	     -3.39888937	     -0.66637517	      0.97998477	      0.32214082	     20.78396141	      5.72011241	      3.53544717	     -7.04225372	    -10.97713237	    -15.68858640	      8.33961225	    -19.43863569	      1.66362583	      1.12506956	    -16.83372431	     10.84407796	     -7.00971692	     14.09575759	    -11.30167869	     12.71994252	     -8.45162355
      0.66233333	      0.45216366	     -3.32357668	     -3.36018889	     -0.66026567	      0.98013083	      0.32271545	     20.87020909	      6.07749308	      3.53443666	     -7.95246791	    -10.81474230	    -15.94093895	      8.32877844	    -19.10740207	      1.32265423	      0.88386288	    -18.13846497	     10.24174711	     -6.98216032	     14.16005015	    -11.25302732	     13.08655670	     -8.39222882
      0.66650000	      0.45206614	     -3.60694872	     -3.31147309	     -0.65418314	      0.98033117	      0.32330034	     20.93464775	      6.42903386	      3.52346237	     -8.86948624	    -10.57589369	    -16.22255618	      8.30992965	    -18.76057380	      0.97287637	      0.62674568	    -19.49564257	      9.61422751	     -6.87580166	     14.29472312	    -11.23363522	     13.43521447	     -8.34143824
      0.67066667	      0.48195903	     -3.88830273	     -3.24411502	     -0.64813838	      0.98060103	      0.32386825	     20.96035602	      6.77190605	      3.48316427	     -9.77649273	    -10.28453211	    -16.50529523	      7.72134715	    -18.39932732	      0.60246248	      0.32926004	    -20.91202714	      8.90697359	     -6.68864013	     17.98922166	    -11.24619522	     13.80171683	     -8.32266239
      0.67483333	      0.49336057	     -4.17245325	     -3.18524125	     -0.64207569	      0.98089448	      0.32443962	     20.98014795	      7.11931561	      3.46186654	    -10.64049086	     -9.90026248	    -16.69637492	      7.71286337	    -17.99561579	      0.23211212	      0.06768449	    -22.35327389	      8.10022411	     -6.62416130	     18.05018760	    -11.23444316	     14.14539748	     -8.24408645
      0.67900000	      0.51188476	     -4.43970434	     -3.10851934	     -0.63605716	      0.98121171	      0.32498938	     20.99195136	      7.44244645	      3.40285919	    -11.50530941	     -9.44812316	    -16.86504349	      7.69043619	    -17.55251133	     -0.14168487	     -0.20839847	    -23.86213054	      7.27456825	     -6.46325322	     18.19813222	    -11.22092395	     14.48596688	     -8.19137705
      0.68316667	      0.52052486	     -4.69832096	     -3.01039966	     -0.63008584	      0.98153943	      0.32550267	     21.01861307	      7.74662514	      3.28978310	    -12.37783608	     -8.94919940	    -16.98073047	      7.62727528	    -17.06045907	     -0.52271355	     -0.44768964	    -25.41387096	      6.39901622	     -6.24059769	     18.56208431	    -11.21706059	     14.81487655	     -8.16196124
